<svg width="19" height="16" viewBox="0 0 19 16" fill="none" xmlns="http://www.w3.org/2000/svg">
<path d="M1.34652 1.60046C3.385 -0.438021 6.6361 -0.577557 8.67464 1.46082L9.18148 2.05359L9.74691 1.46082C11.738 -0.53024 14.8256 -0.437601 16.8729 1.46082L17.0174 1.60046C19.008 3.59167 18.5202 7.5708 16.6219 9.61804L16.3719 9.88171L16.0936 10.1659C15.0223 11.2417 13.3803 12.715 11.1678 14.5848L9.90414 15.6434C9.46811 16.0063 8.83359 16.0014 8.40414 15.6307L6.84457 14.2762L5.45589 13.0546C3.80533 11.5909 2.56642 10.4454 1.7391 9.61804C-0.299306 7.57959 -0.691674 3.63907 1.34652 1.60046ZM16.0838 2.3114C14.4485 0.795078 12.0751 0.773714 10.5858 2.26257L9.13363 3.7821L7.82406 2.25183C6.27226 0.732977 3.77877 0.807973 2.16683 2.4198C0.66979 3.91684 0.880086 7.11841 2.55941 8.79773L2.86019 9.09558C3.70845 9.92357 4.92067 11.0338 6.49105 12.4218L7.60531 13.4003L9.16195 14.7518L10.4198 13.6981L11.3221 12.9305C13.0574 11.4435 14.3735 10.2495 15.2616 9.35828L15.5291 9.08484L15.7713 8.82898C17.3799 7.09401 17.6195 3.84276 16.2127 2.43542L16.0838 2.3114Z" fill="#262626"/>
</svg>
