<svg width="16" height="18" viewBox="0 0 16 18" fill="none" xmlns="http://www.w3.org/2000/svg">
<path d="M15.4678 0C15.6813 0 15.8545 0.173169 15.8545 0.386719V17.1309C15.8545 17.558 15.5082 17.9043 15.0811 17.9043C14.8779 17.9043 14.6828 17.8243 14.5381 17.6816L7.92676 11.1631L1.31641 17.6816C1.01228 17.9815 0.522529 17.978 0.222656 17.6738C0.0800843 17.5291 0 17.334 0 17.1309V0.386719C0 0.173169 0.173169 0 0.386719 0H15.4678ZM1.16016 16.207L7.38379 10.0693C7.68477 9.77256 8.1686 9.77279 8.46973 10.0693L14.6943 16.207V1.16016H1.16016V16.207Z" fill="#262626"/>
</svg>
